<svg width="42" height="42" viewBox="0 0 42 42" fill="none" xmlns="http://www.w3.org/2000/svg">
<path d="M41.6399 20.9045C41.6399 23.6298 41.1031 26.3284 40.0602 28.8463C39.0173 31.3642 37.4886 33.652 35.5615 35.5791C33.6344 37.5062 31.3466 39.0348 28.8287 40.0778C26.3109 41.1207 23.6122 41.6575 20.8869 41.6575C18.1616 41.6575 15.463 41.1207 12.9451 40.0778C10.4272 39.0348 8.13942 37.5062 6.21233 35.5791C4.28523 33.652 2.75658 31.3642 1.71364 28.8463C0.670703 26.3284 0.133911 23.6298 0.133911 20.9045L14.668 20.9045C14.668 21.7212 14.8289 22.5298 15.1414 23.2843C15.454 24.0389 15.912 24.7244 16.4895 25.3019C17.067 25.8794 17.7525 26.3374 18.5071 26.65C19.2616 26.9625 20.0702 27.1234 20.8869 27.1234C21.7036 27.1234 22.5123 26.9625 23.2668 26.65C24.0213 26.3374 24.7069 25.8794 25.2843 25.3019C25.8618 24.7244 26.3199 24.0389 26.6324 23.2843C26.9449 22.5298 27.1058 21.7212 27.1058 20.9045H41.6399Z" fill="#FDFDFD"/>
<circle cx="20.8869" cy="20.9044" r="19.753" stroke="white" stroke-width="2"/>
<circle cx="20.9609" cy="20.9044" r="4.14888" fill="#1E2534"/>
<circle cx="20.9608" cy="20.9045" r="3.43041" fill="white"/>
</svg>
