<svg width="157" height="47" viewBox="0 0 157 47" fill="none" xmlns="http://www.w3.org/2000/svg">
<path d="M41.506 23.4105C41.506 11.9489 32.2146 2.6575 20.753 2.6575C9.29144 2.6575 0 11.9489 0 23.4105C0 34.8721 9.29144 44.1635 20.753 44.1635C32.2146 44.1635 41.506 34.8721 41.506 23.4105ZM16.2507 23.4105C16.2507 20.924 18.2665 18.9082 20.753 18.9082C23.2396 18.9082 25.2553 20.924 25.2553 23.4105C25.2553 25.8971 23.2396 27.9128 20.753 27.9128C18.2665 27.9128 16.2507 25.8971 16.2507 23.4105Z" fill="#1A202C"/>
<circle cx="20.753" cy="23.4105" r="19.753" stroke="#1A202C" stroke-width="2"/>
<circle cx="20.8269" cy="23.4105" r="3.19116" fill="white"/>
<path d="M41.506 23.4105C41.506 26.1358 40.9692 28.8345 39.9263 31.3523C38.8833 33.8702 37.3547 36.158 35.4276 38.0851C33.5005 40.0122 31.2127 41.5408 28.6948 42.5838C26.177 43.6267 23.4783 44.1635 20.753 44.1635C18.0277 44.1635 15.329 43.6267 12.8112 42.5838C10.2933 41.5408 8.00551 40.0122 6.07841 38.0851C4.15132 36.158 2.62266 33.8702 1.57973 31.3523C0.536792 28.8345 -2.38255e-07 26.1358 0 23.4105L14.5341 23.4105C14.5341 24.2272 14.695 25.0359 15.0075 25.7904C15.32 26.5449 15.7781 27.2304 16.3556 27.8079C16.9331 28.3854 17.6186 28.8435 18.3731 29.156C19.1277 29.4685 19.9363 29.6294 20.753 29.6294C21.5697 29.6294 22.3784 29.4685 23.1329 29.156C23.8874 28.8435 24.5729 28.3854 25.1504 27.8079C25.7279 27.2304 26.186 26.5449 26.4985 25.7904C26.811 25.0359 26.9719 24.2272 26.9719 23.4105H41.506Z" fill="white"/>
<circle cx="20.753" cy="23.4105" r="19.753" stroke="#1A202C" stroke-width="2"/>
<path d="M41.506 23.4105C41.506 26.1358 40.9692 28.8345 39.9263 31.3523C38.8833 33.8702 37.3547 36.158 35.4276 38.0851C33.5005 40.0122 31.2127 41.5408 28.6948 42.5838C26.177 43.6267 23.4783 44.1635 20.753 44.1635C18.0277 44.1635 15.329 43.6267 12.8112 42.5838C10.2933 41.5408 8.00551 40.0122 6.07841 38.0851C4.15132 36.158 2.62266 33.8702 1.57973 31.3523C0.536792 28.8345 -2.38255e-07 26.1358 0 23.4105L14.5341 23.4105C14.5341 24.2272 14.695 25.0359 15.0075 25.7904C15.32 26.5449 15.7781 27.2304 16.3556 27.8079C16.9331 28.3854 17.6186 28.8435 18.3731 29.156C19.1277 29.4685 19.9363 29.6294 20.753 29.6294C21.5697 29.6294 22.3784 29.4685 23.1329 29.156C23.8874 28.8435 24.5729 28.3854 25.1504 27.8079C25.7279 27.2304 26.186 26.5449 26.4985 25.7904C26.811 25.0359 26.9719 24.2272 26.9719 23.4105H41.506Z" fill="white"/>
<circle cx="20.753" cy="23.4105" r="19.753" stroke="white" stroke-width="2"/>
<path d="M103.395 33.9964V36.1527C102.343 35.2725 101.254 34.8324 100.129 34.8324C98.8896 34.8324 97.8453 35.2777 96.9963 36.1683C96.1422 37.0537 95.7151 38.1371 95.7151 39.4183C95.7151 40.6839 96.1422 41.7516 96.9963 42.6214C97.8505 43.4912 98.8974 43.9261 100.137 43.9261C100.778 43.9261 101.322 43.822 101.77 43.6136C102.02 43.5095 102.278 43.3688 102.543 43.1917C102.814 43.0147 103.098 42.8011 103.395 42.5511V44.7464C102.353 45.335 101.259 45.6292 100.114 45.6292C98.3896 45.6292 96.9182 45.0277 95.6995 43.8246C94.4859 42.611 93.8792 41.1475 93.8792 39.4339C93.8792 37.8975 94.387 36.5277 95.4026 35.3246C96.6526 33.8506 98.2698 33.1136 100.254 33.1136C101.337 33.1136 102.384 33.4079 103.395 33.9964ZM104.764 41.5511C104.764 40.4522 105.157 39.5173 105.944 38.7464C106.73 37.9756 107.689 37.5902 108.819 37.5902C109.954 37.5902 110.918 37.9782 111.709 38.7542C112.491 39.5303 112.881 40.4834 112.881 41.6136C112.881 42.7542 112.488 43.71 111.702 44.4808C110.91 45.2464 109.939 45.6292 108.788 45.6292C107.647 45.6292 106.691 45.2386 105.92 44.4574C105.15 43.6865 104.764 42.7178 104.764 41.5511ZM106.561 41.5824C106.561 42.3428 106.764 42.9443 107.17 43.3871C107.587 43.835 108.137 44.0589 108.819 44.0589C109.506 44.0589 110.056 43.8376 110.467 43.3949C110.879 42.9522 111.084 42.361 111.084 41.6214C111.084 40.8818 110.879 40.2907 110.467 39.848C110.051 39.4001 109.501 39.1761 108.819 39.1761C108.147 39.1761 107.603 39.4001 107.186 39.848C106.769 40.2959 106.561 40.874 106.561 41.5824ZM116.266 32.2152V45.4105H114.509V32.2152H116.266ZM120.011 32.2152V45.4105H118.253V32.2152H120.011ZM128.927 42.0199H123.474C123.521 42.6449 123.724 43.1423 124.083 43.5121C124.443 43.8766 124.904 44.0589 125.466 44.0589C125.904 44.0589 126.266 43.9548 126.552 43.7464C126.833 43.5381 127.154 43.1527 127.513 42.5902L128.997 43.4183C128.768 43.8089 128.526 44.1449 128.271 44.4261C128.016 44.7022 127.742 44.9313 127.45 45.1136C127.159 45.2907 126.844 45.4209 126.505 45.5042C126.167 45.5876 125.799 45.6292 125.404 45.6292C124.268 45.6292 123.357 45.2647 122.669 44.5355C121.982 43.8011 121.638 42.8272 121.638 41.6136C121.638 40.4105 121.971 39.4365 122.638 38.6917C123.31 37.9574 124.2 37.5902 125.31 37.5902C126.43 37.5902 127.315 37.947 127.966 38.6605C128.612 39.3688 128.935 40.3506 128.935 41.6058L128.927 42.0199ZM127.122 40.5824C126.877 39.6449 126.286 39.1761 125.349 39.1761C125.135 39.1761 124.935 39.21 124.747 39.2777C124.56 39.3402 124.388 39.4339 124.232 39.5589C124.081 39.6787 123.95 39.8246 123.841 39.9964C123.732 40.1683 123.648 40.3636 123.591 40.5824H127.122ZM136.539 38.1292V40.4652C136.137 39.9756 135.778 39.6397 135.46 39.4574C135.148 39.2699 134.781 39.1761 134.359 39.1761C133.697 39.1761 133.148 39.4079 132.71 39.8714C132.273 40.335 132.054 40.9157 132.054 41.6136C132.054 42.3272 132.265 42.9131 132.687 43.3714C133.114 43.8298 133.658 44.0589 134.32 44.0589C134.742 44.0589 135.114 43.9678 135.437 43.7855C135.749 43.6084 136.117 43.2647 136.539 42.7542V45.0746C135.825 45.4443 135.111 45.6292 134.398 45.6292C133.221 45.6292 132.236 45.249 131.445 44.4886C130.653 43.723 130.257 42.7725 130.257 41.6371C130.257 40.5016 130.658 39.5433 131.46 38.7621C132.262 37.9808 133.247 37.5902 134.414 37.5902C135.164 37.5902 135.872 37.7699 136.539 38.1292ZM139.814 39.4417V45.4105H138.056V39.4417H137.306V37.8011H138.056V35.0121H139.814V37.8011H141.181V39.4417H139.814ZM141.887 41.5511C141.887 40.4522 142.28 39.5173 143.066 38.7464C143.853 37.9756 144.811 37.5902 145.941 37.5902C147.077 37.5902 148.04 37.9782 148.832 38.7542C149.613 39.5303 150.004 40.4834 150.004 41.6136C150.004 42.7542 149.611 43.71 148.824 44.4808C148.032 45.2464 147.061 45.6292 145.91 45.6292C144.769 45.6292 143.814 45.2386 143.043 44.4574C142.272 43.6865 141.887 42.7178 141.887 41.5511ZM143.684 41.5824C143.684 42.3428 143.887 42.9443 144.293 43.3871C144.71 43.835 145.259 44.0589 145.941 44.0589C146.629 44.0589 147.178 43.8376 147.59 43.3949C148.001 42.9522 148.207 42.361 148.207 41.6214C148.207 40.8818 148.001 40.2907 147.59 39.848C147.173 39.4001 146.624 39.1761 145.941 39.1761C145.269 39.1761 144.725 39.4001 144.309 39.848C143.892 40.2959 143.684 40.874 143.684 41.5824ZM151.631 37.8011H153.389V38.4808C153.712 38.1423 153.998 37.9105 154.248 37.7855C154.503 37.6553 154.806 37.5902 155.154 37.5902C155.618 37.5902 156.102 37.7412 156.608 38.0433L155.803 39.6527C155.47 39.4131 155.144 39.2933 154.826 39.2933C153.868 39.2933 153.389 40.0173 153.389 41.4652V45.4105H151.631V37.8011Z" fill="white"/>
<path d="M55.3061 15.3545H57.3861C59.6901 15.3545 60.8421 14.3518 60.8421 12.3465C60.8421 10.3412 59.6901 9.33849 57.3861 9.33849H55.3061V15.3545ZM55.3061 28.4105H49.0341V4.28249H59.0181C61.7274 4.28249 63.7968 4.98649 65.2261 6.39449C66.6768 7.80249 67.4021 9.78649 67.4021 12.3465C67.4021 14.9065 66.6768 16.8905 65.2261 18.2985C63.7968 19.7065 61.7274 20.4105 59.0181 20.4105H55.3061V28.4105ZM74.2209 20.1225C74.2209 20.6772 74.3169 21.1892 74.5089 21.6585C74.7222 22.1065 74.9889 22.5012 75.3089 22.8425C75.6502 23.1838 76.0449 23.4505 76.4929 23.6425C76.9622 23.8345 77.4529 23.9305 77.9649 23.9305C78.4769 23.9305 78.9569 23.8345 79.4049 23.6425C79.8742 23.4505 80.2689 23.1838 80.5889 22.8425C80.9302 22.5012 81.1969 22.1065 81.3889 21.6585C81.6022 21.1892 81.7089 20.6878 81.7089 20.1545C81.7089 19.6425 81.6022 19.1625 81.3889 18.7145C81.1969 18.2452 80.9302 17.8398 80.5889 17.4985C80.2689 17.1572 79.8742 16.8905 79.4049 16.6985C78.9569 16.5065 78.4769 16.4105 77.9649 16.4105C77.4529 16.4105 76.9622 16.5065 76.4929 16.6985C76.0449 16.8905 75.6502 17.1572 75.3089 17.4985C74.9889 17.8398 74.7222 18.2345 74.5089 18.6825C74.3169 19.1305 74.2209 19.6105 74.2209 20.1225ZM68.1089 20.0585C68.1089 18.8425 68.3542 17.7118 68.8449 16.6665C69.3355 15.5998 70.0182 14.6825 70.8929 13.9145C71.7675 13.1252 72.8022 12.5065 73.9969 12.0585C75.2129 11.6105 76.5355 11.3865 77.9649 11.3865C79.3729 11.3865 80.6742 11.6105 81.8689 12.0585C83.0849 12.4852 84.1302 13.0932 85.0049 13.8825C85.9009 14.6505 86.5942 15.5785 87.0849 16.6665C87.5755 17.7332 87.8209 18.9172 87.8209 20.2185C87.8209 21.5198 87.5649 22.7145 87.0529 23.8025C86.5622 24.8692 85.8795 25.7972 85.0049 26.5865C84.1302 27.3545 83.0742 27.9518 81.8369 28.3785C80.6209 28.8052 79.2982 29.0185 77.8689 29.0185C76.4609 29.0185 75.1595 28.8052 73.9649 28.3785C72.7702 27.9518 71.7355 27.3438 70.8609 26.5545C70.0075 25.7652 69.3355 24.8265 68.8449 23.7385C68.3542 22.6292 68.1089 21.4025 68.1089 20.0585ZM102.579 17.3065C101.576 16.6238 100.563 16.2825 99.5391 16.2825C98.9844 16.2825 98.4618 16.3785 97.9711 16.5705C97.5018 16.7625 97.0858 17.0398 96.7231 17.4025C96.3604 17.7438 96.0724 18.1598 95.8591 18.6505C95.6671 19.1198 95.5711 19.6532 95.5711 20.2505C95.5711 20.8265 95.6671 21.3598 95.8591 21.8505C96.0724 22.3198 96.3498 22.7358 96.6911 23.0985C97.0538 23.4398 97.4804 23.7065 97.9711 23.8985C98.4618 24.0905 98.9844 24.1865 99.5391 24.1865C100.627 24.1865 101.64 23.8132 102.579 23.0665V27.9945C101.15 28.6132 99.7951 28.9225 98.5151 28.9225C97.3204 28.9225 96.1791 28.7198 95.0911 28.3145C94.0244 27.9092 93.0751 27.3332 92.2431 26.5865C91.4324 25.8185 90.7818 24.9118 90.2911 23.8665C89.8004 22.7998 89.5551 21.6158 89.5551 20.3145C89.5551 19.0132 89.7898 17.8292 90.2591 16.7625C90.7284 15.6745 91.3684 14.7465 92.1791 13.9785C92.9898 13.1892 93.9498 12.5812 95.0591 12.1545C96.1898 11.7065 97.3951 11.4825 98.6751 11.4825C100.083 11.4825 101.384 11.7812 102.579 12.3785V17.3065ZM111.527 1.85049V17.9145L117.607 11.9945H125.543L117.319 19.5785L126.023 28.4105H117.895L111.527 21.7225V28.4105H105.735V1.85049H111.527ZM138.119 17.8185C137.927 17.0078 137.532 16.3572 136.935 15.8665C136.338 15.3758 135.612 15.1305 134.759 15.1305C133.863 15.1305 133.127 15.3652 132.551 15.8345C131.996 16.3038 131.644 16.9652 131.495 17.8185H138.119ZM131.335 21.1785C131.335 23.6745 132.508 24.9225 134.855 24.9225C136.114 24.9225 137.063 24.4105 137.703 23.3865H143.303C142.172 27.1412 139.346 29.0185 134.823 29.0185C133.436 29.0185 132.167 28.8158 131.015 28.4105C129.863 27.9838 128.871 27.3865 128.039 26.6185C127.228 25.8505 126.599 24.9332 126.151 23.8665C125.703 22.7998 125.479 21.6052 125.479 20.2825C125.479 18.9172 125.692 17.6905 126.119 16.6025C126.546 15.4932 127.154 14.5545 127.943 13.7865C128.732 13.0185 129.682 12.4318 130.791 12.0265C131.922 11.5998 133.191 11.3865 134.599 11.3865C135.986 11.3865 137.234 11.5998 138.343 12.0265C139.452 12.4318 140.391 13.0292 141.159 13.8185C141.927 14.6078 142.514 15.5785 142.919 16.7305C143.324 17.8612 143.527 19.1412 143.527 20.5705V21.1785H131.335ZM152.56 16.8265V28.4105H146.768V16.8265H144.848V11.9945H146.768V7.06649H152.56V11.9945H155.856V16.8265H152.56Z" fill="white"/>
</svg>
