<svg width="26" height="26" viewBox="0 0 26 26" fill="none" xmlns="http://www.w3.org/2000/svg">
<path d="M13.4291 20.159C13.3708 20.2173 13.277 20.2195 13.216 20.164L13.2104 20.159C8.26246 15.6694 4.99163 12.7006 4.99163 9.69023C4.99163 7.60689 6.55413 6.04439 8.63746 6.04439C9.9031 6.04439 11.1428 6.69281 11.8808 7.66222C12.2346 8.12699 12.7408 8.50273 13.325 8.50273C13.9091 8.50273 14.4153 8.12699 14.7691 7.66222C15.5071 6.69281 16.7468 6.04439 18.0125 6.04439C20.0958 6.04439 21.6583 7.60689 21.6583 9.69023C21.6583 12.7006 18.3875 15.6694 13.4291 20.159ZM18.0125 3.96106C17.001 3.96106 16.0122 4.22383 15.1385 4.686C14.0552 5.25899 12.5947 5.25899 11.5114 4.686C10.6377 4.22383 9.64894 3.96106 8.63746 3.96106C5.42913 3.96106 2.90829 6.47148 2.90829 9.69023C2.90829 13.6173 6.44996 16.8361 11.8145 21.7006L11.9786 21.85C12.7417 22.5447 13.9082 22.5447 14.6713 21.85L14.8354 21.7006C20.2 16.8361 23.7416 13.6173 23.7416 9.69023C23.7416 6.47148 21.2208 3.96106 18.0125 3.96106Z" fill="#3A3A3A"/>
</svg>
